<svg xmlns="http://www.w3.org/2000/svg" width="1518" height="1459" viewBox="0 0 1518 1459" role="img" aria-labelledby="title desc">
  <title id="title">Obsidian preview with Tufte-inspired Minimal theme</title>
  <desc id="desc">A beige Obsidian reading view with a local graph banner for the note Negentropy, large serif typography, and sectioned body text.</desc>
  <rect width="1518" height="1459" fill="#e8dfc6"/>
  <rect x="1205" y="65" width="90" height="90" rx="16" fill="#ddd0af" opacity="0.78"/>
  <g transform="translate(1250 110)" stroke="#5e4b41" stroke-width="3" fill="none" stroke-linecap="round">
    <circle r="13"/>
    <path d="M0 -24v-6M0 24v6M24 0h6M-24 0h-6M17 -17l4-4M-17 17l-4 4M17 17l4 4M-17 -17l-4-4"/>
  </g>

  <g font-family="ETBembo, Georgia, 'Times New Roman', serif" font-size="18" fill="#44362f">
    <g stroke="#6d5d54" stroke-width="1.1" opacity="0.75">
      <line x1="817" y1="444" x2="803" y2="95"/>
      <line x1="817" y1="444" x2="687" y2="157"/>
      <line x1="817" y1="444" x2="771" y2="243"/>
      <line x1="817" y1="444" x2="886" y2="214"/>
      <line x1="817" y1="444" x2="1005" y2="192"/>
      <line x1="817" y1="444" x2="1101" y2="347"/>
      <line x1="817" y1="444" x2="1065" y2="471"/>
      <line x1="817" y1="444" x2="1059" y2="591"/>
      <line x1="817" y1="444" x2="924" y2="654"/>
      <line x1="817" y1="444" x2="767" y2="670"/>
      <line x1="817" y1="444" x2="672" y2="595"/>
      <line x1="817" y1="444" x2="553" y2="616"/>
      <line x1="817" y1="444" x2="575" y2="498"/>
      <line x1="817" y1="444" x2="614" y2="385"/>
      <line x1="817" y1="444" x2="535" y2="294"/>
      <line x1="817" y1="444" x2="653" y2="270"/>
      <line x1="817" y1="444" x2="804" y2="126"/>
      <line x1="817" y1="444" x2="990" y2="311" stroke-dasharray="4 5"/>
      <line x1="817" y1="444" x2="555" y2="640" stroke-dasharray="4 5"/>
      <line x1="817" y1="444" x2="867" y2="728" stroke-dasharray="4 5"/>
    </g>

    <g>
      <circle cx="817" cy="444" r="16" fill="#3c2b24"/>
      <text x="770" y="486" font-size="26">negentropy</text>

      <circle cx="803" cy="95" r="8" fill="#d8a73e"/>
      <text x="616" y="126">conspicuous-consumption-as-entropy-acceleration</text>

      <circle cx="687" cy="157" r="8" fill="#dd5340"/>
      <text x="577" y="188">maximum-entropy-production</text>

      <circle cx="771" cy="243" r="8" fill="#d8a73e"/>
      <text x="647" y="274">negentropy-dissipation-inference</text>

      <circle cx="886" cy="214" r="8" fill="#8bb31e"/>
      <text x="820" y="246">erwin-schrodinger</text>

      <circle cx="1005" cy="192" r="8" fill="#dd5340"/>
      <text x="961" y="224">autopoiesis</text>

      <circle cx="1101" cy="347" r="8" fill="#dd5340"/>
      <text x="1023" y="387">free-energy-principle</text>

      <circle cx="1065" cy="471" r="8" fill="#d8a73e"/>
      <text x="949" y="503">free-energy-principle-explained</text>

      <circle cx="1059" cy="591" r="8" fill="#dd5340"/>
      <text x="980" y="623">informational-realism</text>

      <circle cx="924" cy="654" r="8" fill="#dd5340"/>
      <text x="850" y="686">computational-neuroscience</text>

      <circle cx="867" cy="735" r="8" fill="#8bb31e"/>

      <circle cx="767" cy="670" r="8" fill="#dd5340"/>
      <text x="716" y="701">neural-coding</text>

      <circle cx="655" cy="714" r="8" fill="#8bb31e"/>

      <circle cx="672" cy="595" r="8" fill="#dd5340"/>
      <text x="658" y="626">homeostasis</text>

      <circle cx="555" cy="616" r="8" fill="#dd5340"/>
      <text x="487" y="646">landauer-principle</text>

      <circle cx="575" cy="498" r="8" fill="#d8a73e"/>
      <text x="439" y="529">economy-as-thermodynamic-system</text>

      <circle cx="614" cy="385" r="8" fill="#d8a73e"/>
      <text x="372" y="436">information-entropy-convergence</text>

      <circle cx="535" cy="294" r="8" fill="#dd5340"/>
      <text x="458" y="327">dissipative-structures</text>

      <circle cx="653" cy="270" r="8" fill="#d8a73e"/>
      <text x="564" y="297">money-as-energy-proxy</text>

      <circle cx="614" cy="385" r="8" fill="#d8a73e" opacity="0"/>
      <circle cx="804" cy="126" r="8" fill="#d8a73e" opacity="0"/>

      <circle cx="990" cy="311" r="8" fill="#8bb31e"/>
      <text x="930" y="343">thorstein-veblen</text>

      <circle cx="555" cy="640" r="8" fill="#dd5340" opacity="0"/>

      <circle cx="614" cy="385" r="8" fill="#d8a73e"/>
      <text x="529" y="407">humans-as-thermodynamic-systems</text>
    </g>
  </g>

  <g font-family="ETBembo, Georgia, 'Times New Roman', serif" fill="#3d2f28">
    <text x="758" y="845" text-anchor="middle" font-size="82">Negentropy</text>

    <text x="152" y="1015" font-size="38">
      <tspan x="152" dy="0">Term introduced by </tspan>
      <tspan fill="#8b6847" text-decoration="underline">erwin-schrodinger</tspan>
      <tspan> in </tspan>
      <tspan font-style="italic">What is Life?</tspan>
      <tspan> (1944). A living</tspan>
    </text>
    <text x="152" y="1078" font-size="38">organism sustains itself by feeding on <tspan font-weight="700">negative entropy</tspan> -- extracting</text>
    <text x="152" y="1141" font-size="38">order from its environment.</text>

    <text x="759" y="1290" text-anchor="middle" font-size="44" font-style="italic">Mechanism</text>
    <rect x="703" y="1315" width="104" height="4" fill="#b89f67"/>

    <text x="123" y="1415" font-size="34">A living system is an open system that absorbs highly structured nutrients (low entropy)</text>
  </g>
</svg>
